<?xml version="1.0" encoding="UTF-8"?>
<svg id="Capa_2" data-name="Capa 2" xmlns="http://www.w3.org/2000/svg" viewBox="0 0 265.52 211.9">
  <defs>
    <style>
      .cls-1 {
      fill: none;
      stroke: #1d1d1b;
      stroke-miterlimit: 10;
      stroke-width: .5px;
      }

      .cls-2 {
      letter-spacing: -.07em;
      }

      .cls-3 {
      letter-spacing: -.06em;
      }

      .cls-4 {
      font-size: 8.61px;
      }

      .cls-4, .cls-5, .cls-6, .cls-7 {
      font-family: Arial-BoldMT, Arial;
      font-weight: 700;
      }

      .cls-8 {
      font-size: .1px;
      }

      .cls-8, .cls-5, .cls-9, .cls-7 {
      fill: #fff;
      }

      .cls-8, .cls-10, .cls-11, .cls-12, .cls-13, .cls-14, .cls-15 {
      font-family: ArialMT, Arial;
      }

      .cls-16, .cls-9, .cls-17 {
      stroke-width: 0px;
      }

      .cls-18 {
      letter-spacing: -.07em;
      }

      .cls-5 {
      font-size: 11px;
      }

      .cls-10 {
      font-size: 13px;
      }

      .cls-11 {
      font-size: 12px;
      }

      .cls-6, .cls-15 {
      font-size: 9.74px;
      }

      .cls-12 {
      font-size: 10.72px;
      }

      .cls-13 {
      font-size: 18px;
      }

      .cls-14 {
      font-size: 9px;
      }

      .cls-19 {
      letter-spacing: -.06em;
      }

      .cls-20 {
      letter-spacing: 0em;
      }

      .cls-17 {
      fill: #1d1d1b;
      }

      .cls-21 {
      letter-spacing: -.06em;
      }

      .cls-7 {
      font-size: 10.4px;
      }
    </style>
  </defs>
  <g id="Capa_1-2" data-name="Capa 1">
    <rect class="cls-1" x=".25" y=".25" width="265.02" height="211.4" rx="8.5" ry="8.5" />
    <line class="cls-1" x1=".25" y1="46.21" x2="265.27" y2="46.21" />
    <g>
      <path class="cls-16"
        d="m212.08,24.66c0,2.77,0,5.55,0,8.32,0,1.04-.62,1.72-1.68,1.72-5.44.02-10.89.02-16.33,0-1.31,0-2.06-.8-2.07-2.13-.02-5.27-.06-10.53.03-15.8.02-1.46.45-2.38,2.39-2.35,2.26.03,4.52.09,6.78.08,2.7,0,5.39-.06,8.09-.08.35,0,.7.03,1.05.08,1.45.21,1.73.55,1.73,2.04,0,2.7,0,5.41,0,8.11Zm-19.5-.06s0,0,0,0c0,2.63,0,5.26,0,7.89,0,1.33.44,1.79,1.77,1.79,5.19,0,10.38,0,15.58,0,1.33,0,1.79-.47,1.79-1.79,0-5.23,0-10.45,0-15.68,0-1.55-.27-1.84-1.78-1.84-5.23,0-10.46,0-15.68.02-1.41,0-1.66.28-1.66,1.72,0,2.63,0,5.26,0,7.89Z" />
      <path class="cls-16"
        d="m257.16,24.62c0,2.7,0,5.41,0,8.11,0,1.35-.54,1.97-1.89,1.98-5.37.02-10.74.02-16.12,0-1.31,0-2.07-.79-2.07-2.13-.02-5.34-.02-10.67,0-16.01,0-1.46.72-2.11,2.49-2.13,2.33-.02,4.66.13,7,.15,1.79,0,3.58-.1,5.36-.13,1.13-.02,2.28-.11,3.4,0,1.19.12,1.87.69,1.84,1.95-.07,2.74-.02,5.48-.02,8.22Zm-.37,0s-.01,0-.02,0c0-2.67,0-5.34,0-8,0-1.28-.31-1.64-1.54-1.65-5.37-.01-10.74.01-16.11,0-1.04,0-1.51.51-1.51,1.49,0,5.37-.02,10.74.02,16.11.01,1.34.48,1.69,1.88,1.69,5.12,0,10.25,0,15.37,0,1.51,0,1.91-.39,1.91-1.87,0-2.6,0-5.19,0-7.79Z" />
      <path class="cls-16"
        d="m234.73,24.68c0,2.6,0,5.19,0,7.79,0,1.53-.71,2.25-2.22,2.25-5.16,0-10.31,0-15.47,0-1.74,0-2.39-.66-2.39-2.4,0-5.12.03-10.24-.02-15.36-.02-1.71.52-2.44,2.52-2.44,2.09,0,4.18.11,6.27.12,2.56,0,5.11-.07,7.67-.08.71,0,1.43.04,2.14.1.94.08,1.5.76,1.5,1.82,0,2.74,0,5.48,0,8.21Zm-.43-.11c0-2.63,0-5.26,0-7.89,0-1.2-.38-1.65-1.54-1.66-5.37-.02-10.74-.03-16.11-.02-1.17,0-1.57.46-1.57,1.64,0,5.3,0,10.6,0,15.9,0,1.28.45,1.75,1.7,1.75,5.26,0,10.53,0,15.79,0,1.27,0,1.73-.46,1.73-1.72,0-2.67,0-5.33,0-8Z" />
      <path class="cls-9"
        d="m192.59,24.6c0-2.63,0-5.26,0-7.89,0-1.43.25-1.71,1.66-1.72,5.23-.02,10.46-.02,15.68-.02,1.51,0,1.78.29,1.78,1.84,0,5.23,0,10.45,0,15.68,0,1.32-.46,1.79-1.79,1.79-5.19,0-10.38,0-15.58,0-1.33,0-1.77-.46-1.77-1.79,0-2.63,0-5.26,0-7.89,0,0,0,0,0,0Zm11-5.11c-1.84.92-1.29,2.55-1.29,4.07,2.72-.95,3.31-1.97,2.69-4.59-.48.18-.95.37-1.42.55.42-.32.85-.64,1.29-.97-2.5-1.88-3.07-1.87-5.47.05,1.35.6,2.49,2.13,4.21.88Zm2.14,12.82c-.07-.68-.12-1.24-.19-1.8-.24-1.77-.33-3.47,1.52-4.57.68-.4.85-1.07.78-1.85-.12-1.16-.16-2.34-.27-3.5-.03-.36-.17-.71-.26-1.06-.13,0-.26-.01-.4-.02-.16.85-.29,1.71-.49,2.55-.21.87.15,1.96-.66,2.47-.34-.3-.79-.73-.82-.71-.84.77-2.16,1.5-2.33,2.42-.36,1.95-.11,4.01-.11,6.06h3.25Zm-7.1-.04h3.13c.04-.15.07-.22.07-.29,0-1.56,0-3.12.01-4.69,0-1.31-1.12-2.99-2.33-3.46-.17-.07-.4,0-.93,0,.53.77.91,1.32,1.29,1.88-1.01-.7-1.87-1.44-1.9-2.81-.02-.95-.25-1.89-.42-2.82-.04-.19-.22-.36-.52-.81-.15.69-.27,1.08-.3,1.47-.05.64.09,1.31-.08,1.91-.52,1.81.04,3.13,1.52,4.24.41.31.64,1.07.66,1.62.03,1.23-.12,2.47-.2,3.78Zm.5-13.46c-.19,3.36.28,4.09,2.92,4.72,0-.86.02-1.72-.01-2.57,0-.22-.09-.54-.25-.64-.83-.51-1.69-.97-2.66-1.51Z" />
      <path class="cls-9"
        d="m256.79,24.63c0,2.6,0,5.19,0,7.79,0,1.48-.4,1.87-1.91,1.87-5.12,0-10.25,0-15.37,0-1.4,0-1.87-.35-1.88-1.69-.04-5.37-.03-10.74-.02-16.11,0-.98.48-1.49,1.51-1.49,5.37,0,10.74-.02,16.11,0,1.23,0,1.53.36,1.54,1.65.01,2.67,0,5.34,0,8,0,0,.01,0,.02,0Zm-6.74,2.06c-.06-.03-.13-.05-.19-.08-.6.97-1.21,1.94-1.8,2.93-.08.13-.08.38,0,.5.59.99,1.21,1.95,1.96,3.17.05-.82.08-1.32.12-1.88.33-.02.62-.1.88-.04,2.02.46,3.1-.59,3.77-2.31.01-.03.03-.07.03-.1.01-.32.14-.71,0-.96-.78-1.46-1.62-2.88-2.49-4.39-.85.5-1.64.95-2.45,1.42.33.58.63,1.1.92,1.62.31.55.61,1.09.95,1.7h-1.63c-.03-.56-.05-1.07-.08-1.58Zm-4.79,1.07c-.66-1.2-1.18-2.18-1.73-3.15-.09-.15-.3-.34-.45-.34-1.15-.03-2.29-.02-3.44-.02-.01.07-.02.15-.03.22.45.3.91.61,1.39.93-.19.34-.34.62-.5.89q-1.29,2.29.21,4.47c.14.21.41.46.63.47,1.69.04,3.39.02,5.09.02v-2.96h-3.77c.33-.59.58-1.04.83-1.49.56.3,1.05.56,1.76.94Zm1.52-4.72c1.03,0,2.05.03,3.08-.02.27-.01.64-.17.76-.38.56-.92,1.05-1.89,1.67-3.03-.68.33-1.16.57-1.69.82-.2-.32-.43-.57-.52-.86-.6-2-2.08-2.34-3.87-2.08-.28.04-.66.15-.79.36-.89,1.47-1.73,2.97-2.61,4.5.85.48,1.6.92,2.42,1.38.69-1.16,1.33-2.23,1.99-3.33q.94,1.36-.43,2.62Z" />
      <path class="cls-9"
        d="m234.3,24.56c0,2.67,0,5.33,0,8,0,1.26-.46,1.72-1.73,1.72-5.26,0-10.53,0-15.79,0-1.25,0-1.7-.47-1.7-1.75,0-5.3,0-10.6,0-15.9,0-1.18.4-1.64,1.57-1.64,5.37-.01,10.74,0,16.11.02,1.16,0,1.54.45,1.54,1.66,0,2.63,0,5.26,0,7.89Zm-9.19,5.78c0-1.88-.03-3.69.03-5.5,0-.28.37-.67.66-.81.92-.44,1.7-1.07,1.81-2.07.14-1.28.03-2.59.03-3.92-1.78-.11-1.88,1.64-2.89,2.28-.15-.19-.32-.39-.52-.63-.42.48-.78.89-1.14,1.31l-.16-.14c.46-.7.91-1.41,1.4-2.15.18.27.33.5.53.8.3-.51.56-.93.83-1.39h-4c0,1.02,0,1.98,0,2.93,0,1.53.63,2.42,2.02,2.99.21.09.51.34.51.52.04,1.94.02,3.88.02,5.68-.75.49-1.68-.24-2.28.82h5.23q-.16-.49-2.09-.71Z" />
      <path class="cls-16"
        d="m205.72,32.31h-3.25c0-2.05-.25-4.12.11-6.06.17-.93,1.49-1.65,2.33-2.42.03-.02.48.41.82.71.81-.51.45-1.59.66-2.47.2-.84.33-1.7.49-2.55.13,0,.26.01.4.02.09.35.23.7.26,1.06.11,1.17.16,2.34.27,3.5.08.78-.1,1.45-.78,1.85-1.85,1.09-1.76,2.8-1.52,4.57.08.56.12,1.12.19,1.8Z" />
      <path class="cls-16"
        d="m198.62,32.26c.08-1.31.24-2.55.2-3.78-.02-.56-.25-1.32-.66-1.62-1.48-1.11-2.04-2.42-1.52-4.24.17-.6.03-1.27.08-1.91.03-.39.15-.78.3-1.47.29.45.48.62.52.81.17.94.39,1.88.42,2.82.04,1.38.9,2.12,1.9,2.81-.38-.55-.76-1.11-1.29-1.88.54,0,.76-.06.93,0,1.21.47,2.33,2.16,2.33,3.46,0,1.56,0,3.12-.01,4.69,0,.07-.03.14-.07.29h-3.13Z" />
      <path class="cls-16"
        d="m199.13,18.81c.97.54,1.83,1,2.66,1.51.16.1.24.42.25.64.03.85.01,1.7.01,2.57-2.63-.63-3.11-1.36-2.92-4.72Z" />
      <path class="cls-16"
        d="m203.59,19.49c-1.73,1.25-2.86-.28-4.22-.88,2.4-1.93,2.97-1.93,5.47-.05-.44.33-.86.65-1.29.97l.04-.04Z" />
      <path class="cls-16"
        d="m203.55,19.53c.47-.18.95-.37,1.42-.55.62,2.61.04,3.63-2.69,4.59,0-1.52-.54-3.15,1.29-4.07,0,0-.03.04-.03.04Z" />
      <path class="cls-16"
        d="m250.05,26.69c.02.51.05,1.02.08,1.58h1.63c-.34-.61-.64-1.16-.95-1.7-.29-.52-.59-1.04-.92-1.62.81-.47,1.6-.93,2.45-1.42.86,1.51,1.7,2.93,2.49,4.39.13.25,0,.63,0,.96,0,.03-.02.07-.03.1-.68,1.72-1.75,2.77-3.77,2.31-.26-.06-.55.02-.88.04-.03.56-.07,1.06-.12,1.88-.76-1.21-1.37-2.18-1.96-3.17-.07-.12-.07-.37,0-.5.58-.99,1.19-1.96,1.8-2.93.06.03.13.05.19.08Z" />
      <path class="cls-16"
        d="m245.26,27.76c-.71-.38-1.2-.64-1.76-.94-.25.45-.5.89-.83,1.49h3.77v2.96c-1.71,0-3.4.02-5.09-.02-.22,0-.48-.26-.63-.47q-1.5-2.18-.21-4.47c.15-.27.31-.55.5-.89-.49-.33-.94-.63-1.39-.93.01-.07.02-.15.03-.22,1.15,0,2.29-.01,3.44.02.16,0,.36.19.45.34.55.96,1.08,1.94,1.73,3.15Z" />
      <path class="cls-16"
        d="m246.78,23.04q1.37-1.26.43-2.62c-.66,1.1-1.3,2.17-1.99,3.33-.81-.47-1.57-.9-2.42-1.38.88-1.53,1.72-3.03,2.61-4.5.13-.21.51-.32.79-.36,1.79-.26,3.27.08,3.87,2.08.09.29.32.54.52.86.53-.26,1.01-.49,1.69-.82-.62,1.14-1.11,2.11-1.67,3.03-.13.21-.5.36-.76.38-1.02.04-2.05.02-3.08.02Z" />
      <path class="cls-16"
        d="m225.12,30.35q1.93.22,2.09.71h-5.23c.6-1.06,1.53-.33,2.28-.82,0-1.79.01-3.73-.02-5.68,0-.18-.3-.43-.51-.52-1.4-.57-2.02-1.46-2.02-2.99,0-.95,0-1.91,0-2.93h4c-.27.45-.53.88-.83,1.39-.2-.3-.35-.53-.53-.8-.48.75-.94,1.45-1.4,2.15l.16.14c.36-.42.72-.83,1.14-1.31.2.24.37.45.52.63,1.01-.64,1.11-2.38,2.89-2.28,0,1.33.11,2.64-.03,3.92-.11,1-.89,1.63-1.81,2.07-.29.14-.65.53-.66.81-.06,1.81-.03,3.62-.03,5.5Z" />
    </g>
    <g>
      <path class="cls-17"
        d="m28.01,13.65l.13-.18c.07-.08.19-.1.37-.04.18.06.37.17.57.34.2.17.35.34.44.52.09.17.11.3.05.39-.04.06-.08.11-.12.18,0,.02-.01.03-.02.04-.02.02-.04.04-.05.07-.47.71-1,1.66-1.58,2.85-.66,1.36-1.31,2.86-1.95,4.49-.64,1.63-1.18,3.22-1.62,4.75-.43,1.46-.69,2.72-.78,3.78-.03.43-.04.73-.02.92.02.19.05.31.08.38v.02c.21.16.37.34.48.52.1.18.13.32.08.41-.05.09-.17.11-.35.06-.23-.06-.45-.18-.68-.35-.22-.15-.41-.33-.57-.53-.16-.2-.29-.42-.37-.66-.09-.26-.15-.54-.17-.84-.02-.3-.01-.62.02-.96.04-.53.13-1.12.27-1.78.14-.65.32-1.35.53-2.09.14-.49.29-.98.45-1.47-.08.13-.16.25-.24.37-.72,1.12-1.4,2.11-2.04,2.99-.64.88-1.22,1.56-1.72,2.03h0c-.06.06-.17.07-.33.02-.36-.11-.67-.3-.94-.57-.27-.27-.47-.63-.6-1.08-.11-.42-.16-.91-.15-1.49,0-.58.05-1.22.13-1.93.09-.81.22-1.74.4-2.79-.51,1.05-1.06,2.11-1.63,3.18-.57,1.06-1.15,2.09-1.75,3.06-.6.98-1.19,1.86-1.79,2.64-.6.79-1.19,1.43-1.76,1.92-.58.5-1.12.8-1.64.9-.13.01-.3-.03-.49-.14-.2-.11-.38-.26-.55-.44-.17-.19-.27-.36-.3-.51-.03-.14.02-.23.14-.26.46-.09.95-.35,1.46-.79.51-.44,1.04-1,1.58-1.69.54-.69,1.08-1.47,1.64-2.35.55-.88,1.09-1.8,1.62-2.77.53-.97,1.04-1.95,1.54-2.94.5-.99.96-1.94,1.39-2.87.43-.92.82-1.77,1.17-2.55.35-.77.64-1.44.89-1.99l.14-.34c.05-.09.16-.12.33-.08.17.04.36.14.57.3.2.16.36.33.46.5s.15.31.12.42c-1.09,4.67-1.77,8.2-2.03,10.61-.05.51-.09.88-.1,1.11-.01.23-.02.41-.02.54,0,.05,0,.09,0,.14.4-.42.8-.92,1.22-1.5.42-.58.85-1.23,1.3-1.94.45-.71.92-1.47,1.42-2.28.39-.62.79-1.27,1.2-1.93.78-1.26,1.53-2.44,2.24-3.55s1.36-2.03,1.94-2.79l.02-.02Z" />
      <path class="cls-17"
        d="m35.73,24.68c.07.02.15.07.23.13.08.07.14.15.18.22.04.07.05.12.02.15-.07.13-.15.29-.25.46-.24.45-.53.96-.84,1.52s-.62,1.07-.9,1.52c-.28.45-.5.73-.64.85-.12.08-.23.12-.33.12-.16,0-.32-.05-.46-.11-.15-.06-.28-.16-.42-.27-.28-.23-.47-.5-.58-.81-.11-.31-.14-.71-.09-1.2.08-.67.25-1.44.5-2.31.09-.31.19-.62.29-.92-.2.27-.45.66-.77,1.17-.31.5-.65,1.05-1.01,1.64-.31.52-.62,1.01-.91,1.48-.29.47-.54.86-.76,1.18-.21.32-.36.5-.45.56-.1.05-.2.08-.3.08h0s-.02,0-.02,0h0c-.25-.02-.48-.08-.71-.18-.23-.1-.42-.22-.58-.37-.39-.36-.64-.82-.76-1.39-.07-.29-.1-.6-.09-.95,0-.35.05-.72.13-1.1.16-.76.42-1.53.79-2.3.28-.59.59-1.14.95-1.63.36-.49.75-.89,1.16-1.19.41-.3.82-.46,1.24-.47.28,0,.56.05.83.15.28.11.54.25.8.42.39.27.72.57.99.89.13-.16.24-.32.33-.47.09-.15.18-.3.27-.45.11-.19.23-.4.37-.61.06-.08.18-.09.35-.04.17.05.36.16.57.33.2.17.35.34.45.52.1.17.12.3.06.39-.26.4-.56,1.01-.88,1.81-.32.8-.61,1.65-.87,2.55-.18.63-.32,1.22-.42,1.76.37-.36.76-.81,1.16-1.36.4-.55.81-1.13,1.23-1.76.02-.04.07-.04.14-.02Zm-3.21-2.06c-.06-.09-.15-.19-.24-.29-.1-.1-.23-.21-.39-.32-.1-.07-.25-.1-.46-.1-.35.01-.71.16-1.07.45-.36.28-.7.65-1.03,1.12-.33.47-.62.98-.89,1.54-.36.75-.61,1.49-.77,2.22-.14.66-.16,1.22-.07,1.68.11-.05.3-.23.58-.55.28-.32.6-.7.95-1.15.35-.45.69-.89,1.02-1.33.33-.44.59-.8.79-1.09.46-.67.98-1.39,1.56-2.18Z" />
      <path class="cls-17"
        d="m43.2,19.81c.17.04.36.14.57.31.2.17.36.34.46.51.11.17.14.31.1.42-.31.74-.64,1.54-.98,2.42-.34.88-.66,1.76-.96,2.62-.1.29-.22.67-.38,1.13-.25.74-.5,1.48-.77,2.22-.27.74-.54,1.46-.83,2.16s-.6,1.35-.93,1.95-.69,1.13-1.07,1.59c-.38.45-.79.81-1.24,1.07-.23.13-.47.22-.72.26-.25.05-.51.05-.78,0-.33-.06-.68-.19-1.03-.39-.35-.2-.73-.47-1.11-.83-.19-.18-.32-.36-.39-.52-.07-.16-.06-.28.02-.35.09-.06.23-.05.42.03.19.08.38.21.58.38.19.19.4.29.61.32.35.06.7-.02,1.06-.23.42-.25.82-.59,1.18-1.03.37-.44.71-.96,1.03-1.55.32-.59.63-1.23.91-1.91.29-.69.56-1.4.82-2.13.26-.73.51-1.46.76-2.18.07-.2.13-.41.21-.63.05-.15.11-.32.17-.51.14-.38.27-.76.41-1.13-.4.62-.87,1.37-1.41,2.27-.32.53-.63,1.03-.93,1.51-.29.48-.55.88-.77,1.21-.22.32-.37.51-.46.57-.09.05-.19.08-.3.08h-.02s0,0,0,0c-.25-.02-.48-.08-.71-.18-.23-.1-.42-.22-.58-.37-.38-.36-.63-.82-.76-1.38-.07-.29-.1-.6-.09-.95.01-.35.06-.72.14-1.1.16-.76.42-1.53.78-2.3.28-.59.59-1.14.95-1.63.36-.49.74-.89,1.15-1.19s.82-.46,1.25-.47c.28,0,.56.05.84.15.28.11.54.25.8.42.39.27.72.57.99.89.07-.09.13-.19.19-.28.17-.4.34-.8.5-1.19.05-.1.15-.13.32-.09Zm-1.46,2.16c-.06-.09-.15-.19-.24-.29-.1-.1-.23-.21-.39-.33-.1-.07-.25-.1-.46-.1-.35.01-.71.16-1.07.45-.36.28-.7.66-1.03,1.12-.33.47-.63.98-.88,1.54-.35.75-.61,1.49-.77,2.22-.13.66-.16,1.22-.07,1.68.11-.05.3-.23.59-.55.28-.32.6-.7.95-1.15.35-.45.69-.89,1.02-1.33.33-.44.59-.8.79-1.09.46-.67.98-1.39,1.56-2.18Z" />
      <path class="cls-17"
        d="m49.05,23.72c-.15.27-.34.61-.56,1.03-.24.45-.53.96-.85,1.52-.32.57-.63,1.08-.91,1.53-.29.46-.5.74-.65.86-.12.08-.23.12-.34.12-.16-.01-.31-.05-.46-.11-.14-.06-.29-.16-.42-.27-.28-.23-.47-.5-.58-.81-.11-.31-.13-.71-.08-1.2.08-.67.25-1.44.5-2.31.27-.91.56-1.77.9-2.6.33-.82.63-1.44.9-1.85.06-.08.18-.09.36-.04.18.05.37.16.58.33.2.17.35.34.45.52.1.17.12.3.06.39-.26.4-.56,1.01-.88,1.81-.32.8-.61,1.65-.87,2.55-.19.63-.33,1.22-.43,1.76.37-.36.76-.81,1.16-1.36.37-.51.98-1.45,1.81-2.82-.03-.17-.05-.33-.07-.5-.03-.31-.01-.6.04-.89.05-.28.13-.54.24-.78.23-.48.55-.84.95-1.08.28-.16.58-.24.9-.25.24,0,.49.05.73.15.24.1.48.24.72.41l.04-.1c.04-.08.08-.16.1-.24.04-.08.08-.16.12-.26.05-.1.16-.13.33-.08.17.04.37.15.59.31.22.16.39.33.5.51.12.18.16.31.12.42-.01.03-.03.08-.06.14l-.05.13c-.3.71-.54,1.3-.7,1.76-.16.46-.27.81-.32,1.08-.05.26-.06.46-.04.59.13.15.21.29.24.42.02.14-.04.22-.17.23s-.3-.04-.52-.16c-.26-.14-.5-.31-.7-.52-.2-.2-.34-.43-.4-.68-.05-.25-.05-.53,0-.84.05-.31.12-.63.23-.96.11-.33.22-.64.35-.95-.2.01-.4.07-.59.18-.35.21-.63.53-.84.96-.1.21-.17.44-.21.69-.05.25-.06.51-.03.78.02.25.07.5.15.75.08.25.19.49.34.73l.6.95c.23.39.39.73.47,1.04.08.31.1.58.05.82-.03.16-.09.31-.16.44-.08.12-.18.24-.29.33-.24.18-.52.3-.86.36-.37.05-.77.02-1.2-.09-.43-.11-.86-.31-1.28-.59-.22-.16-.4-.32-.53-.5-.13-.18-.2-.33-.19-.44.02-.12.11-.17.26-.14.16.02.35.11.57.26.13.09.3.14.49.17.19.03.39.02.6-.01.27-.03.49-.13.68-.28.19-.14.31-.34.36-.59.03-.16.02-.33-.02-.53-.05-.19-.14-.41-.29-.64l-.59-.94c-.12-.2-.23-.4-.33-.59Zm.09-8.64c.17.05.36.16.57.33.2.18.35.35.45.52.1.17.12.3.06.39-.24.38-.49.81-.76,1.3h0c-.26.5-.54,1.06-.84,1.69-.05.1-.16.13-.33.08-.17-.04-.36-.15-.57-.31-.2-.17-.36-.34-.47-.51-.11-.17-.14-.31-.09-.42.27-.58.55-1.15.84-1.69h0c.28-.53.53-.97.77-1.33.06-.08.18-.1.35-.05Z" />
      <path class="cls-17"
        d="m59.31,16.06c.96-.04,1.72-.04,2.27-.02.16.02.34.09.54.22.2.13.37.29.52.48.15.19.22.35.21.47,0,.12-.08.18-.24.18-.66-.03-1.61-.02-2.86.04-.42.02-.84.05-1.25.08-.51.99-1.01,2.07-1.5,3.24-.49,1.16-.89,2.27-1.22,3.33-.04.14-.08.27-.12.4-.18.64-.32,1.23-.42,1.77.68-.67,1.27-1.47,1.75-2.4.48-.93.88-1.88,1.2-2.84.08-.26.16-.5.24-.74.15-.48.27-1.05.36-1.73,0-.23.13-.35.37-.34.24,0,.35.15.34.43l2.59-.18c.21-.03.49.09.83.35.2.17.35.34.45.52.1.17.12.3.06.39-.26.4-.56,1.01-.88,1.81-.32.8-.62,1.65-.88,2.55-.18.63-.32,1.22-.41,1.76.37-.36.75-.81,1.15-1.36s.81-1.13,1.24-1.76c.02-.03.07-.04.15-.02.07.02.15.07.23.13.08.07.14.15.17.22.04.07.04.12.03.15-.03.06-.07.12-.11.19-.17.31-.37.68-.61,1.11-.24.43-.48.87-.74,1.3-.25.44-.49.81-.7,1.13-.21.32-.38.52-.49.61-.12.08-.23.12-.33.12h0c-.32-.02-.61-.15-.88-.38-.28-.23-.47-.5-.58-.81-.11-.31-.13-.71-.08-1.2.04-.33.1-.68.18-1.08.09-.39.19-.81.31-1.24.32-1.09.68-2.1,1.08-3.02l-1.91.13c-.11.39-.23.81-.38,1.27-.28.88-.6,1.78-.98,2.68s-.77,1.72-1.19,2.43c-.42.71-.83,1.22-1.24,1.52-.12.08-.24.12-.34.11-.32-.01-.62-.14-.88-.37-.28-.22-.47-.49-.58-.81-.11-.31-.14-.72-.08-1.21.05-.46.15-.98.29-1.55.06-.25.13-.52.21-.8.07-.24.15-.49.24-.74.16-.54.33-1.03.51-1.47.45-1.19.93-2.34,1.44-3.43-.07,0-.15.01-.22.02-.69.09-1.25.18-1.7.28-.18.05-.31.09-.41.11-.08.02-.13.03-.14.03.01.12-.03.19-.14.22-.1.02-.25,0-.44-.1-.21-.11-.4-.25-.57-.42-.17-.18-.28-.35-.33-.52,0-.02-.01-.04-.02-.06,0-.02,0-.04,0-.06,0-.11.06-.21.2-.3.14-.09.34-.16.6-.22.45-.1,1.04-.2,1.77-.28.69-.08,1.41-.16,2.14-.21.49-.94.93-1.68,1.32-2.21.06-.07.18-.08.36-.03.18.06.37.17.57.33.2.18.35.35.44.52.09.17.1.3.04.39-.18.24-.37.53-.57.86Z" />
      <path class="cls-17"
        d="m73.02,22.07c.07.02.15.07.23.14.08.07.14.15.18.21.04.07.05.12.02.15-.07.13-.15.29-.25.46-.24.45-.53.96-.84,1.52-.32.56-.62,1.07-.9,1.52-.28.45-.5.73-.64.85-.12.08-.23.12-.33.12-.16,0-.32-.05-.46-.11-.14-.06-.28-.16-.42-.27-.28-.23-.47-.5-.58-.81-.11-.31-.14-.71-.09-1.2.08-.67.25-1.44.5-2.31.09-.31.19-.62.29-.92-.2.27-.45.66-.77,1.17-.31.5-.65,1.05-1.01,1.64-.31.52-.62,1.01-.91,1.48-.29.47-.54.86-.76,1.18-.21.32-.36.5-.45.56-.1.05-.2.08-.3.08h0s-.02,0-.02,0h0c-.25-.02-.48-.08-.71-.18-.23-.1-.42-.22-.58-.37-.39-.36-.64-.82-.77-1.39-.07-.29-.1-.6-.09-.95,0-.35.05-.72.13-1.1.16-.76.42-1.53.79-2.3.28-.59.59-1.13.95-1.63.36-.49.75-.89,1.16-1.19.41-.3.82-.46,1.24-.47.28,0,.56.05.83.15.28.11.54.25.8.42.38.27.72.57.99.89.13-.16.24-.32.33-.47.09-.15.18-.3.27-.45.11-.19.23-.4.37-.61.06-.08.18-.09.35-.04.17.05.36.16.57.33.2.17.35.34.45.52.1.17.12.3.06.39-.26.4-.56,1.01-.88,1.81-.32.8-.61,1.65-.88,2.55-.18.63-.32,1.22-.42,1.76.37-.36.76-.81,1.16-1.36.4-.55.81-1.13,1.23-1.76.02-.04.07-.04.14-.02Zm-3.21-2.06c-.07-.09-.15-.19-.24-.29-.1-.1-.23-.21-.39-.33-.09-.07-.25-.1-.46-.1-.35.01-.71.16-1.07.45-.36.28-.7.65-1.03,1.12-.33.47-.62.98-.89,1.54-.36.75-.61,1.49-.77,2.22-.14.66-.16,1.22-.07,1.68.11-.05.3-.23.59-.55.28-.32.6-.7.95-1.15.35-.45.69-.89,1.02-1.33.33-.44.59-.8.79-1.09.46-.67.98-1.39,1.56-2.18Z" />
      <path class="cls-17"
        d="m77.55,12.65c.18.06.37.17.57.33.2.18.35.35.44.52.09.17.1.3.05.39-.39.53-.84,1.29-1.36,2.29-.51,1-1.02,2.09-1.51,3.28-.5,1.19-.91,2.33-1.25,3.42-.03.1-.06.21-.08.31-.13.44-.24.86-.33,1.26v.02c-.03.14-.05.26-.08.38,0,.03,0,.06-.02.1.37-.36.76-.81,1.16-1.35.4-.54.81-1.13,1.23-1.75.02-.03.07-.04.14-.02.07.02.15.07.23.14.08.07.14.15.18.21.04.07.05.12.02.15-.04.08-.09.17-.15.27-.23.41-.5.9-.82,1.47-.32.57-.63,1.09-.92,1.57-.3.48-.53.81-.7.98-.07.07-.16.12-.25.14-.09.03-.2.03-.32,0-.25-.05-.49-.16-.71-.35-.28-.23-.47-.5-.58-.81-.11-.31-.13-.71-.08-1.2.03-.3.08-.62.16-.98.09-.43.2-.88.34-1.37.07-.24.15-.49.24-.74.16-.54.33-1.03.51-1.47.55-1.47,1.15-2.86,1.8-4.18.65-1.32,1.22-2.32,1.71-2.99.07-.07.19-.08.37-.02Z" />
    </g>
    <g>
      <path class="cls-16"
        d="m87.34,12.67c0-.82.12-1.52.37-2.07.18-.41.43-.78.75-1.11.32-.33.67-.57,1.05-.73.5-.21,1.09-.32,1.74-.32,1.19,0,2.15.37,2.86,1.11.72.74,1.07,1.77,1.07,3.08s-.35,2.33-1.06,3.06-1.66,1.11-2.85,1.11-2.16-.37-2.87-1.1c-.71-.73-1.06-1.74-1.06-3.03Zm1.68-.06c0,.92.21,1.61.63,2.08.42.47.96.71,1.61.71s1.19-.23,1.6-.7c.42-.47.63-1.17.63-2.11s-.2-1.62-.61-2.07c-.41-.46-.95-.68-1.62-.68s-1.22.23-1.63.69c-.41.46-.62,1.16-.62,2.09Z" />
      <path class="cls-16"
        d="m96.47,16.66v-8.09h3.44c.86,0,1.49.07,1.88.22.39.15.71.4.94.78s.35.8.35,1.27c0,.61-.18,1.11-.54,1.5s-.89.64-1.6.75c.35.21.64.43.87.68s.54.68.93,1.31l.99,1.58h-1.95l-1.18-1.76c-.42-.63-.71-1.02-.86-1.19-.15-.16-.32-.28-.49-.34s-.45-.09-.82-.09h-.33v3.38h-1.63Zm1.63-4.67h1.21c.78,0,1.27-.03,1.47-.1.19-.07.35-.18.46-.34.11-.16.17-.36.17-.61,0-.27-.07-.49-.22-.66-.15-.17-.35-.27-.61-.32-.13-.02-.53-.03-1.19-.03h-1.27v2.05Z" />
      <path class="cls-16"
        d="m104.62,8.57h2.98c.67,0,1.19.05,1.54.15.47.14.88.39,1.22.75.34.36.6.79.77,1.31.18.52.27,1.15.27,1.91,0,.67-.08,1.24-.25,1.72-.2.59-.49,1.06-.87,1.43-.28.28-.67.49-1.15.65-.36.11-.84.17-1.45.17h-3.07v-8.09Zm1.63,1.37v5.36h1.22c.46,0,.79-.03.99-.08.26-.07.48-.18.66-.34s.32-.42.43-.78.17-.86.17-1.48-.06-1.11-.17-1.44c-.11-.33-.26-.6-.46-.78s-.45-.31-.76-.38c-.23-.05-.68-.08-1.34-.08h-.73Z" />
      <path class="cls-16"
        d="m112.78,16.66v-8.09h6v1.37h-4.36v1.79h4.06v1.36h-4.06v2.2h4.52v1.36h-6.15Z" />
      <path class="cls-16"
        d="m120.34,16.66v-8.09h1.59l3.31,5.4v-5.4h1.52v8.09h-1.64l-3.26-5.27v5.27h-1.52Z" />
      <path class="cls-16"
        d="m131.61,8.57h2.98c.67,0,1.19.05,1.54.15.47.14.88.39,1.22.75.34.36.6.79.77,1.31.18.52.27,1.15.27,1.91,0,.67-.08,1.24-.25,1.72-.2.59-.49,1.06-.87,1.43-.28.28-.67.49-1.15.65-.36.11-.84.17-1.45.17h-3.07v-8.09Zm1.63,1.37v5.36h1.22c.46,0,.79-.03.99-.08.26-.07.48-.18.66-.34s.32-.42.43-.78.17-.86.17-1.48-.06-1.11-.17-1.44c-.11-.33-.26-.6-.46-.78s-.45-.31-.76-.38c-.23-.05-.68-.08-1.34-.08h-.73Z" />
      <path class="cls-16"
        d="m139.78,16.66v-8.09h6v1.37h-4.36v1.79h4.06v1.36h-4.06v2.2h4.52v1.36h-6.15Z" />
      <path class="cls-16"
        d="m150.46,16.66v-8.09h6v1.37h-4.36v1.79h4.06v1.36h-4.06v2.2h4.52v1.36h-6.15Z" />
      <path class="cls-16"
        d="m158.01,16.66v-8.09h1.59l3.31,5.4v-5.4h1.52v8.09h-1.64l-3.26-5.27v5.27h-1.52Z" />
      <path class="cls-16"
        d="m168.22,16.66l-2.89-8.09h1.77l2.05,5.99,1.98-5.99h1.73l-2.9,8.09h-1.74Z" />
      <path class="cls-16"
        d="m173.45,8.11l.76-1.65h1.74l-1.52,1.65h-.98Zm.19,8.55v-8.09h1.63v8.09h-1.63Z" />
      <path class="cls-16"
        d="m176.5,12.67c0-.82.12-1.52.37-2.07.18-.41.43-.78.75-1.11.32-.33.67-.57,1.05-.73.5-.21,1.09-.32,1.74-.32,1.19,0,2.15.37,2.86,1.11.72.74,1.07,1.77,1.07,3.08s-.35,2.33-1.06,3.06-1.66,1.11-2.85,1.11-2.16-.37-2.87-1.1c-.71-.73-1.06-1.74-1.06-3.03Zm1.68-.06c0,.92.21,1.61.63,2.08.42.47.96.71,1.61.71s1.19-.23,1.6-.7c.42-.47.63-1.17.63-2.11s-.2-1.62-.61-2.07c-.41-.46-.95-.68-1.62-.68s-1.22.23-1.63.69c-.41.46-.62,1.16-.62,2.09Z" />
      <path class="cls-16" d="m85.2,27.96v-5.39h3.7v.91h-2.61v1.28h2.25v.91h-2.25v2.29h-1.09Z" />
      <path class="cls-16"
        d="m92.05,26.72l1.03.17c-.13.38-.34.67-.63.86-.29.2-.64.3-1.07.3-.68,0-1.18-.22-1.51-.67-.26-.36-.39-.8-.39-1.35,0-.65.17-1.15.51-1.52.34-.37.77-.55,1.28-.55.58,0,1.04.19,1.38.58s.5.97.48,1.76h-2.59c0,.31.09.54.25.72.16.17.36.26.6.26.16,0,.3-.04.41-.13.11-.09.19-.23.25-.43Zm.06-1.04c0-.3-.08-.53-.23-.68s-.33-.23-.54-.23c-.23,0-.41.08-.56.25-.15.16-.22.39-.22.67h1.54Z" />
      <path class="cls-16"
        d="m97.38,25.21l-1.02.18c-.03-.2-.11-.36-.23-.46s-.28-.15-.47-.15c-.26,0-.46.09-.62.27s-.23.48-.23.89c0,.46.08.79.23.98s.36.29.63.29c.2,0,.36-.06.48-.17s.21-.3.26-.58l1.02.17c-.11.47-.31.82-.61,1.06-.3.24-.7.36-1.2.36-.57,0-1.03-.18-1.37-.54-.34-.36-.51-.86-.51-1.5s.17-1.15.51-1.51c.34-.36.8-.54,1.38-.54.48,0,.85.1,1.13.31s.48.52.6.94Z" />
      <path class="cls-16"
        d="m99.2,22.57v1.98c.33-.39.73-.58,1.2-.58.24,0,.45.04.64.13s.34.2.43.34c.1.14.16.29.2.46.04.17.05.43.05.78v2.29h-1.03v-2.06c0-.41-.02-.67-.06-.78s-.11-.2-.21-.26c-.1-.06-.22-.1-.37-.1-.17,0-.33.04-.46.12s-.23.21-.3.38-.09.42-.09.74v1.96h-1.03v-5.39h1.03Z" />
      <path class="cls-16"
        d="m103.54,25.25l-.94-.17c.11-.38.29-.66.54-.84.26-.18.64-.27,1.15-.27.46,0,.8.05,1.03.16.23.11.38.25.48.42.09.17.14.48.14.92v1.21c-.01.34,0,.6.04.76s.1.34.19.52h-1.02c-.03-.07-.06-.17-.1-.31-.02-.06-.03-.1-.04-.12-.18.17-.37.3-.57.39-.2.09-.42.13-.64.13-.4,0-.72-.11-.95-.33-.23-.22-.35-.49-.35-.83,0-.22.05-.42.16-.59s.25-.31.44-.4c.19-.09.46-.17.82-.24.48-.09.82-.18,1-.25v-.1c0-.2-.05-.34-.15-.42-.1-.08-.28-.13-.56-.13-.18,0-.33.04-.43.11-.1.07-.19.2-.25.38Zm1.38.84c-.13.04-.34.1-.63.16-.29.06-.47.12-.56.18-.13.1-.2.22-.2.36s.05.27.16.38.25.16.41.16c.19,0,.36-.06.53-.18.12-.09.21-.21.25-.34.03-.09.04-.26.04-.5v-.21Z" />
      <path class="cls-16"
        d="m111.31,26.72l1.03.17c-.13.38-.34.67-.63.86-.29.2-.64.3-1.07.3-.68,0-1.18-.22-1.51-.67-.26-.36-.39-.8-.39-1.35,0-.65.17-1.15.51-1.52.34-.37.77-.55,1.28-.55.58,0,1.04.19,1.38.58s.5.97.48,1.76h-2.59c0,.31.09.54.25.72.16.17.36.26.6.26.16,0,.3-.04.41-.13.11-.09.19-.23.25-.43Zm.06-1.04c0-.3-.08-.53-.23-.68s-.33-.23-.54-.23c-.23,0-.41.08-.56.25-.15.16-.22.39-.22.67h1.54Z" />
      <path class="cls-16"
        d="m112.88,26.85l1.04-.16c.04.2.13.35.27.46.13.1.32.16.57.16.27,0,.47-.05.6-.15.09-.07.14-.16.14-.28,0-.08-.02-.14-.07-.19-.05-.05-.17-.09-.35-.14-.83-.18-1.36-.35-1.58-.5-.31-.21-.46-.5-.46-.88,0-.34.13-.62.4-.85.27-.23.68-.35,1.24-.35s.93.09,1.19.26c.26.17.44.43.54.77l-.97.18c-.04-.15-.12-.27-.24-.35-.12-.08-.28-.12-.5-.12-.27,0-.47.04-.58.11-.08.05-.12.12-.12.21,0,.07.03.14.1.19.09.07.42.17.97.29.55.12.93.28,1.15.46.22.18.32.44.32.77,0,.36-.15.67-.45.92-.3.26-.74.39-1.33.39-.53,0-.95-.11-1.26-.32-.31-.22-.51-.51-.61-.88Z" />
      <path class="cls-16"
        d="m119.22,24.06v.82h-.71v1.57c0,.32,0,.5.02.56s.04.1.09.13c.05.03.11.05.17.05.1,0,.23-.03.42-.1l.09.8c-.24.1-.51.15-.82.15-.19,0-.35-.03-.5-.09-.15-.06-.26-.14-.33-.24-.07-.1-.12-.23-.15-.4-.02-.12-.03-.36-.03-.73v-1.7h-.47v-.82h.47v-.78l1.04-.6v1.38h.71Z" />
      <path class="cls-16" d="m119.94,23.53v-.96h1.03v.96h-1.03Zm0,4.44v-3.91h1.03v3.91h-1.03Z" />
      <path class="cls-16"
        d="m121.95,24.06h.95v.53c.34-.41.75-.62,1.22-.62.25,0,.47.05.65.15.18.1.33.26.45.47.17-.21.36-.36.56-.47.2-.1.41-.15.64-.15.29,0,.53.06.73.17.2.12.35.29.44.51.07.17.11.44.11.81v2.5h-1.03v-2.23c0-.39-.04-.64-.11-.75-.1-.15-.24-.22-.44-.22-.15,0-.28.04-.41.13-.13.09-.22.22-.28.39-.06.17-.08.44-.08.81v1.88h-1.03v-2.14c0-.38-.02-.63-.06-.74-.04-.11-.09-.19-.17-.25-.08-.05-.18-.08-.31-.08-.16,0-.3.04-.43.13-.13.09-.22.21-.27.37-.06.16-.08.43-.08.81v1.9h-1.03v-3.91Z" />
      <path class="cls-16"
        d="m129.5,25.25l-.94-.17c.11-.38.29-.66.54-.84.26-.18.64-.27,1.15-.27.46,0,.8.05,1.03.16.23.11.38.25.48.42.09.17.14.48.14.92v1.21c-.01.34,0,.6.04.76s.1.34.19.52h-1.02c-.03-.07-.06-.17-.1-.31-.02-.06-.03-.1-.04-.12-.18.17-.37.3-.57.39-.2.09-.42.13-.64.13-.4,0-.72-.11-.95-.33-.23-.22-.35-.49-.35-.83,0-.22.05-.42.16-.59s.25-.31.44-.4c.19-.09.46-.17.82-.24.48-.09.82-.18,1-.25v-.1c0-.2-.05-.34-.15-.42-.1-.08-.28-.13-.56-.13-.18,0-.33.04-.43.11-.1.07-.19.2-.25.38Zm1.38.84c-.13.04-.34.1-.63.16-.29.06-.47.12-.56.18-.13.1-.2.22-.2.36s.05.27.16.38.25.16.41.16c.19,0,.36-.06.53-.18.12-.09.21-.21.25-.34.03-.09.04-.26.04-.5v-.21Z" />
      <path class="cls-16"
        d="m136.5,27.96h-.96v-.57c-.16.22-.35.39-.56.5-.22.11-.44.16-.66.16-.45,0-.83-.18-1.15-.54-.32-.36-.48-.87-.48-1.51s.16-1.17.47-1.51c.31-.34.71-.52,1.18-.52.44,0,.81.18,1.13.54v-1.94h1.03v5.39Zm-2.76-2.04c0,.42.06.72.17.9.17.27.4.4.7.4.24,0,.44-.1.61-.3s.25-.5.25-.91c0-.45-.08-.77-.24-.97-.16-.2-.37-.3-.62-.3s-.45.1-.62.29c-.17.19-.25.49-.25.87Z" />
      <path class="cls-16"
        d="m138.29,25.25l-.94-.17c.11-.38.29-.66.54-.84.26-.18.64-.27,1.15-.27.46,0,.8.05,1.03.16.23.11.38.25.48.42.09.17.14.48.14.92v1.21c-.01.34,0,.6.04.76s.1.34.19.52h-1.02c-.03-.07-.06-.17-.1-.31-.02-.06-.03-.1-.04-.12-.18.17-.37.3-.57.39-.2.09-.42.13-.64.13-.4,0-.72-.11-.95-.33-.23-.22-.35-.49-.35-.83,0-.22.05-.42.16-.59s.25-.31.44-.4c.19-.09.46-.17.82-.24.48-.09.82-.18,1-.25v-.1c0-.2-.05-.34-.15-.42-.1-.08-.28-.13-.56-.13-.18,0-.33.04-.43.11-.1.07-.19.2-.25.38Zm1.38.84c-.13.04-.34.1-.63.16-.29.06-.47.12-.56.18-.13.1-.2.22-.2.36s.05.27.16.38.25.16.41.16c.19,0,.36-.06.53-.18.12-.09.21-.21.25-.34.03-.09.04-.26.04-.5v-.21Z" />
      <path class="cls-16"
        d="m147.38,27.96h-.96v-.57c-.16.22-.35.39-.56.5-.22.11-.44.16-.66.16-.45,0-.83-.18-1.15-.54-.32-.36-.48-.87-.48-1.51s.16-1.17.47-1.51c.31-.34.71-.52,1.18-.52.44,0,.81.18,1.13.54v-1.94h1.03v5.39Zm-2.76-2.04c0,.42.06.72.17.9.17.27.4.4.7.4.24,0,.44-.1.61-.3s.25-.5.25-.91c0-.45-.08-.77-.24-.97-.16-.2-.37-.3-.62-.3s-.45.1-.62.29c-.17.19-.25.49-.25.87Z" />
      <path class="cls-16"
        d="m150.67,26.72l1.03.17c-.13.38-.34.67-.63.86-.29.2-.64.3-1.07.3-.68,0-1.18-.22-1.51-.67-.26-.36-.39-.8-.39-1.35,0-.65.17-1.15.51-1.52.34-.37.77-.55,1.28-.55.58,0,1.04.19,1.38.58s.5.97.48,1.76h-2.59c0,.31.09.54.25.72.16.17.36.26.6.26.16,0,.3-.04.41-.13.11-.09.19-.23.25-.43Zm.06-1.04c0-.3-.08-.53-.23-.68s-.33-.23-.54-.23c-.23,0-.41.08-.56.25-.15.16-.22.39-.22.67h1.54Z" />
      <path class="cls-16"
        d="m156.95,26.72l1.03.17c-.13.38-.34.67-.63.86-.29.2-.64.3-1.07.3-.68,0-1.18-.22-1.51-.67-.26-.36-.39-.8-.39-1.35,0-.65.17-1.15.51-1.52.34-.37.77-.55,1.28-.55.58,0,1.04.19,1.38.58s.5.97.48,1.76h-2.59c0,.31.09.54.25.72.16.17.36.26.6.26.16,0,.3-.04.41-.13.11-.09.19-.23.25-.43Zm.06-1.04c0-.3-.08-.53-.23-.68s-.33-.23-.54-.23c-.23,0-.41.08-.56.25-.15.16-.22.39-.22.67h1.54Z" />
      <path class="cls-16"
        d="m162.43,27.96h-1.03v-1.99c0-.42-.02-.69-.07-.82s-.12-.22-.22-.29c-.1-.07-.22-.1-.36-.1-.18,0-.34.05-.48.15s-.24.23-.29.39c-.05.16-.08.46-.08.9v1.77h-1.03v-3.91h.96v.57c.34-.44.77-.66,1.29-.66.23,0,.44.04.63.12.19.08.33.19.43.31.1.13.16.27.2.43.04.16.06.39.06.7v2.43Z" />
      <path class="cls-16"
        d="m165.27,24.06v.82h-.71v1.57c0,.32,0,.5.02.56s.04.1.09.13c.05.03.11.05.17.05.1,0,.23-.03.42-.1l.09.8c-.24.1-.51.15-.82.15-.19,0-.35-.03-.5-.09-.15-.06-.26-.14-.33-.24-.07-.1-.12-.23-.15-.4-.02-.12-.03-.36-.03-.73v-1.7h-.47v-.82h.47v-.78l1.04-.6v1.38h.71Z" />
      <path class="cls-16"
        d="m166.97,27.96h-1.03v-3.91h.96v.56c.16-.26.31-.44.44-.52.13-.08.28-.12.45-.12.24,0,.46.06.68.19l-.32.9c-.17-.11-.34-.17-.49-.17s-.27.04-.37.12-.18.22-.24.43c-.06.21-.09.65-.09,1.31v1.21Z" />
      <path class="cls-16"
        d="m171.18,26.72l1.03.17c-.13.38-.34.67-.63.86-.29.2-.64.3-1.07.3-.68,0-1.18-.22-1.51-.67-.26-.36-.39-.8-.39-1.35,0-.65.17-1.15.51-1.52.34-.37.77-.55,1.28-.55.58,0,1.04.19,1.38.58s.5.97.48,1.76h-2.59c0,.31.09.54.25.72.16.17.36.26.6.26.16,0,.3-.04.41-.13.11-.09.19-.23.25-.43Zm.06-1.04c0-.3-.08-.53-.23-.68s-.33-.23-.54-.23c-.23,0-.41.08-.56.25-.15.16-.22.39-.22.67h1.54Z" />
      <path class="cls-16"
        d="m173.01,28.22l1.18.14c.02.14.06.23.14.28.1.07.25.11.46.11.27,0,.47-.04.61-.12.09-.05.16-.14.21-.26.03-.09.05-.24.05-.47v-.57c-.31.42-.7.63-1.17.63-.52,0-.94-.22-1.25-.67-.24-.35-.36-.79-.36-1.31,0-.65.16-1.16.47-1.5.31-.35.71-.52,1.18-.52s.88.21,1.2.64v-.55h.97v3.51c0,.46-.04.81-.11,1.03-.08.23-.18.41-.32.54-.14.13-.32.23-.55.31-.23.07-.52.11-.87.11-.66,0-1.13-.11-1.41-.34-.28-.23-.42-.51-.42-.86,0-.03,0-.08,0-.12Zm.92-2.29c0,.41.08.72.24.91.16.19.36.29.59.29.25,0,.47-.1.64-.3.17-.2.26-.49.26-.88s-.08-.71-.25-.9c-.17-.2-.38-.29-.63-.29s-.45.1-.61.29-.24.49-.24.88Z" />
      <path class="cls-16"
        d="m178.48,25.25l-.94-.17c.11-.38.29-.66.54-.84.26-.18.64-.27,1.15-.27.46,0,.8.05,1.03.16.23.11.38.25.48.42.09.17.14.48.14.92v1.21c-.01.34,0,.6.04.76s.1.34.19.52h-1.02c-.03-.07-.06-.17-.1-.31-.02-.06-.03-.1-.04-.12-.18.17-.37.3-.57.39-.2.09-.42.13-.64.13-.4,0-.72-.11-.95-.33-.23-.22-.35-.49-.35-.83,0-.22.05-.42.16-.59s.25-.31.44-.4c.19-.09.46-.17.82-.24.48-.09.82-.18,1-.25v-.1c0-.2-.05-.34-.15-.42-.1-.08-.28-.13-.56-.13-.18,0-.33.04-.43.11-.1.07-.19.2-.25.38Zm1.38.84c-.13.04-.34.1-.63.16-.29.06-.47.12-.56.18-.13.1-.2.22-.2.36s.05.27.16.38.25.16.41.16c.19,0,.36-.06.53-.18.12-.09.21-.21.25-.34.03-.09.04-.26.04-.5v-.21Z" />
      <path class="cls-16" d="m182.1,25.09v-1.03h1.03v1.03h-1.03Zm0,2.87v-1.03h1.03v1.03h-1.03Z" />
    </g>
    <text class="cls-11" transform="translate(94 40.31)">
      <tspan x="0" y="0">{{fechaEntrega}}</tspan>
    </text>
    <text class="cls-8" transform="translate(5.51 51.31)">
      <tspan x="0" y="0">DES</tspan>
    </text>
    <rect class="cls-16" x=".24" y="79.23" width="87.15" height="15.33" />
    <text class="cls-5" transform="translate(3.38 91.04)">
      <tspan x="0" y="0">DESTIN</tspan>
      <tspan class="cls-2" x="40.34" y="0">AT</tspan>
      <tspan x="53.37" y="0">ARIO</tspan>
    </text>
    <rect class="cls-16" x=".54" y="46.21" width="58.47" height="15.64" />
    <text class="cls-5" transform="translate(5.33 57.82)">
      <tspan x="0" y="0">DESTINO</tspan>
    </text>
    <text class="cls-11" transform="translate(61.79 58.45)">
      <tspan x="0" y="0">{{ciudad}}</tspan>
    </text>
    <text class="cls-11" transform="translate(4.63 74.37)">
      <tspan x="0" y="0">{{departamento}}</tspan>
    </text>
    <line class="cls-1" x1=".59" y1="79.4" x2="179.99" y2="79.4" />
    <text class="cls-12" transform="translate(93.38 92.22)">
      <tspan x="0" y="0">{{nombres}}</tspan>
    </text>
    <g>
      <text class="cls-6" transform="translate(5.43 140.29)">
        <tspan x="0" y="0">Barrio:</tspan>
      </text>
      <text class="cls-15" transform="translate(43.31 140.89)">
        <tspan x="0" y="0">{{barrio}}</tspan>
      </text>
    </g>
    <g>
      <g>
        <text class="cls-6" transform="translate(5.43 108.56)">
          <tspan x="0" y="0">Celular:</tspan>
        </text>
        <text class="cls-15" transform="translate(45.07 109.1)">
          <tspan x="0" y="0">{{celular}}</tspan>
        </text>
      </g>
      <g>
        <text class="cls-6" transform="translate(5.43 124.43)">
          <tspan x="0" y="0">Localidad:</tspan>
        </text>
        <text class="cls-15" transform="translate(56.53 124.97)">
          <tspan x="0" y="0">{{localidad}}</tspan>
        </text>
      </g>
      <g>
        <text class="cls-6" transform="translate(5.43 156.21)">
          <tspan x="0" y="0">Dirección:</tspan>
        </text>
        <text class="cls-15" transform="translate(55.85 156.75)">
          <tspan x="0" y="0">{{direccion}}</tspan>
        </text>
      </g>
      <g>
        <text class="cls-6" transform="translate(5.43 181.09)">
          <tspan x="0" y="0">Horario:</tspan>
        </text>
        <text class="cls-15" transform="translate(46.69 181.63)">
          <tspan x="0" y="0">{{horario}}</tspan>
        </text>
      </g>
      <g>
        <text class="cls-6" transform="translate(5.43 196.35)">
          <tspan x="0" y="0">Inf:</tspan>
        </text>
        <text class="cls-15" transform="translate(24.33 196.89)" lengthAdjust="spacingAndGlyphs">
          <tspan x="0" y="0" textLength="100">kjkjkjkkkkkkkkkkkkkkkkkkkkkkkkkkkkkkkkkkkkkkkkkkkkkkkkkkkkkkkkk</tspan>
        </text>
      </g>
    </g>
    <line class="cls-1" x1="179.76" y1="46.46" x2="179.76" y2="211.65" />
    <text class="cls-4" transform="translate(183.36 66.4)">
      <tspan x="0" y="0">NÚMERO DE GUÍA:</tspan>
    </text>
    <text class="cls-10" transform="translate(201.78 85.98)">
      <tspan x="0" y="0">{{guia}}</tspan>
    </text>
    <g>
      <g>
        <rect class="cls-16" x="180.09" y="103.16" width="85.25" height="15.64" />
        <text class="cls-5" transform="translate(183.29 113.39)">
          <tspan x="0" y="0">Forma de pago</tspan>
        </text>
      </g>
      <text class="cls-14" transform="translate(207.53 138.35)">
        <tspan x="0" y="0">{{pago}}</tspan>
      </text>
    </g>
    <g>
      <rect class="cls-16" x="180.16" y="154.09" width="85.25" height="15.64" />
      <text class="cls-7" transform="translate(182.62 164.46)">
        <tspan class="cls-19" x="0" y="0">V</tspan>
        <tspan x="6.36" y="0">alor del pedido</tspan>
      </text>
      <text class="cls-13" transform="translate(195.23 194.87)">
        <tspan x="0" y="0">{{total}}</tspan>
      </text>
    </g>
  </g>
</svg>
